<svg 
  width="800px" 
  height="800px" 
  viewBox="0 0 269.971 269.971" 
  version="1.1" 
  xmlns="http://www.w3.org/2000/svg"
>
  <style>
    .icon-path {
      fill: #09090b;
    }
    @media (prefers-color-scheme: dark) {
      .icon-path {
        fill: #fafafa;
      }
    }
  </style>
  <g class="icon-path">
    <path d="M249.806,129.665c0.7-37.4,9-96.4-30-120c0.5-2.601-0.7-5.301-4.2-6.2c-49.8-12.3-123.799,10.6-169.199,30.3
             c-24.2,10.5-29.3,31.7-29.2,55.9c0.3,46.5-1,93.8,1.6,140.199c0.1,2,1.1,3.301,2.4,4c0.7,1.5,2.2,2.601,4.3,2.9
             c0.3,0,0.6,0.1,0.8,0.1c34.1,25.801,63.1,24.4,105.8,28.2c28.4,2.5,91.5,16.2,109.3-17.1
             C261.206,211.265,249.105,169.265,249.806,129.665z M32.406,134.864c0.7-38.1-9.1-77.699,35-94.5
             c45.7-17.399,92.899-19.1,140.5-24.3c-5.101,38.5,2,79.101,2.5,117.8c0.399,27.801-3.601,57-7.7,84.4c-0.3,1.9,0.2,3.5,1,4.8
             c-28.601,2.4-55.8,6.5-84.9,5.7c-30-0.8-60-4.7-90-2.5C31.006,195.864,31.906,165.364,32.406,134.864z"/>
    <path d="M173.605,71.765c-0.8-0.2-1.399,0.2-1.899,0.7c-1.3-1.4-3.101-2.101-5.5-1.3c-21.7,7-56.3,2.399-80.6,11.8
             c-3.6,1.399-4.7,6.6-1.4,8.5c-0.7,0.8-1.2,1.7-1.3,2.899c-1,19.601,3.7,40.801-1.1,59.601c-10-6.8-24.3-9.3-29.1,5.1
             c-3.3,9.7-1.5,24.101,8.3,29.601c14.2,8.1,27.9-15.601,31.3-25.601c5-14.8,4.9-31.399,3.2-47.6c23.8,0.2,47.5-4.3,71.2-6.5
             c-0.601,3.2-1.2,6.5-1.8,9.7c-0.5,2.399-5.801,22.699-8.9,36.399c-11.3-3.6-24.4,1-26.2,14.8c-2.2,16.5,16.1,19.4,27.6,13
             c7.6-4.199,10-15.8,11.6-23.3c2.6-12.5,5.5-25,7.7-37.7C178.406,112.165,187.206,75.965,173.605,71.765z M94.406,105.665
             c-0.6-4.2-1.2-8.4-1.8-12.4c14.9,1.5,32.1-2.6,46.2-4.3c6.3-0.8,23.601-0.4,31.101-5.601c0,0,0,0,0,0.101c-0.101,4-0.5,8-1,12
             C143.906,97.665,119.406,103.465,94.406,105.665z"/>
  </g>
</svg>
